# xmcd CD database file
#
# Track frame offsets:
#	150
#	20318
#	42834
#	63216
#	81551
#	99316
#	121356
#	134004
#	162962
#	185850
#	205621
#	224674
#	249496
#	265011
#	285811
#
# Disc length: 4109 seconds
#
# Revision: 0
# Processed by: cddbd v1.5.2PL0 Copyright (c) Steve Scherf et al.
# Submitted via: CDex 1.51
#
DISCID=d6100b0f
DTITLE=blowing instrument players - solos vol.2 "Blow"
DYEAR=2013
DGENRE=Jazz
TTITLE0=Kenichi Matsumoto (tenor saxophone)
TTITLE1=Rabito Arimoto (trumpet)
TTITLE2=Takerou Sekijima (tuba)
TTITLE3=Kunikazu Tanaka (tenor saxophone)
TTITLE4=Takumi Ito (amplified tenor saxophone, effects)
TTITLE5=Toshihiro Koike (trombone)
TTITLE6=Kunihiro Izumi (alto and tenor saxophones)
TTITLE7=Akira Sakata (clarinet)
TTITLE8=Yoichiro Kita (trumpet)
TTITLE9=Naoji Kondo (baritone saxophone)
TTITLE10=Yasuyuki Takahashi (trombone)
TTITLE11=Yasuhisa Mizutani (metal clarinet)
TTITLE12=Junji Hirose (tenor saxophone)
TTITLE13=Daysuke Takaoka (tuba)
TTITLE14=Masafumi Ezaki (trumpet)
EXTD=YEAR: 2013
EXTT0=
EXTT1=
EXTT2=
EXTT3=
EXTT4=
EXTT5=
EXTT6=
EXTT7=
EXTT8=
EXTT9=
EXTT10=
EXTT11=
EXTT12=
EXTT13=
EXTT14=
PLAYORDER=
